<svg xmlns="http://www.w3.org/2000/svg" viewBox="0 0 64 64" role="img" aria-label="Здоровое питание">
  <defs>
    <linearGradient id="tile" x1="0%" y1="0%" x2="100%" y2="100%">
      <stop offset="0%" stop-color="#43b96a" />
      <stop offset="100%" stop-color="#2f9452" />
    </linearGradient>
  </defs>

  <rect x="4" y="4" width="56" height="56" rx="18" fill="url(#tile)" />
  <rect
    x="5"
    y="5"
    width="54"
    height="54"
    rx="17"
    fill="none"
    stroke="#ffffff"
    stroke-opacity="0.12"
  />

  <g transform="translate(-2.5 0)">
    <path
      d="M19.5 30.2c0-5.4 3.9-9.2 8.8-9.2 2.8 0 5.2 1.3 6.8 3.6 1.6-2.3 4-3.6 6.8-3.6 4.9 0 8.8 3.8 8.8 9.2 0 8.4-7.2 14.4-15 18.5-.5.3-1.1.3-1.6 0-7.8-4.1-15-10.1-15-18.5Z"
      fill="#ffffff"
    />
    <path
      d="M20.5 32.2h8.1l2.6-5.5 3.2 10 3.1-5.8h7"
      fill="none"
      stroke="#2f9452"
      stroke-linecap="round"
      stroke-linejoin="round"
      stroke-width="3"
    />
  </g>
</svg>
